PathFileType	4	(X/Y/Z)	D:\TRACE\v60_Jaco2_6-2-23\JustBodyDRS_Motion2_4-platform.trc
DataRate	CameraRate	NumFrames	NumMarkers	Units	OrigDataRate	OrigDataStartFrame	OrigNumFrames
100.00	100.00	      48	5	mm	100.00	4326	      6921
Frame#	Time	Left_Front			Right_Front			Left_Aft			Right_Aft			Post			
		X1	Y1	Z1	X2	Y2	Z2	X3	Y3	Z3	X4	Y4	Z4	X5	Y5	Z5	

4326	43.250	-779.78552	63.78988	-623.33148	790.04230	64.67484	-628.70734	-688.18549	-30.88139	507.96487	753.56458	-33.52019	516.61444	6.89649	1384.25159	-836.56293	
4327	43.260	-781.20447	63.03974	-623.73083	789.13293	63.56337	-628.98352	-688.90558	-30.23365	507.77737	753.05292	-32.75083	516.49768	5.77213	1382.96204	-837.69800	
4328	43.270	-782.29236	61.76778	-624.27405	788.07660	62.65096	-629.25739	-690.01392	-29.58462	507.52237	750.77838	-33.08820	515.97852	4.59445	1382.12183	-839.71442	
4329	43.280	-782.96747	60.55508	-624.50610	787.01880	61.64854	-629.50775	-691.08466	-29.05686	507.16959	750.58411	-31.69734	516.41241	3.89728	1380.95715	-842.12225	
4330	43.290	-783.88458	59.99541	-624.60455	786.14178	60.86048	-629.77136	-691.99084	-28.43218	507.05322	750.17529	-30.84895	516.31036	2.92248	1379.83228	-845.07153	
4331	43.300	-785.21179	59.36388	-624.99420	785.00427	60.09595	-630.09918	-693.16528	-27.62771	506.98328	748.77747	-30.11524	516.33600	1.55562	1378.57312	-848.29742	
4332	43.310	-786.23492	58.88340	-625.19531	784.05176	59.17503	-630.12805	-694.19812	-27.16375	506.73239	747.63544	-29.41194	516.35767	0.52977	1377.51575	-851.66193	
4333	43.320	-787.24487	57.31693	-625.32111	783.00708	58.31982	-630.53046	-695.14484	-26.54027	506.68375	746.83472	-29.00454	516.14606	-0.39833	1376.61926	-854.56451	
4334	43.330	-788.18524	56.19943	-625.70911	781.76337	57.40802	-630.86310	-696.21893	-25.96153	506.47137	745.88336	-28.20560	515.83521	-1.24024	1375.38281	-857.01617	
4335	43.340	-789.35211	55.77126	-626.29468	780.63196	56.38663	-631.20703	-697.40918	-25.26473	506.08990	744.90710	-27.42796	515.55450	-2.16839	1373.90186	-859.03607	
4336	43.350	-790.51025	54.87252	-626.38898	779.78259	55.38497	-631.29034	-698.29688	-24.80429	505.89172	743.32727	-26.71223	515.51532	-3.36106	1372.80273	-861.07336	
4337	43.360	-791.40363	53.71853	-626.49377	778.61951	54.49778	-631.58099	-699.20905	-23.85817	505.82089	742.65289	-26.07820	515.23022	-4.86663	1371.42627	-862.60248	
4338	43.370	-792.42267	52.62010	-626.86523	777.48511	53.52480	-632.06927	-700.28510	-23.30013	505.45544	741.15710	-25.62489	514.86060	-5.47700	1369.74805	-863.93353	
4339	43.380	-793.81183	51.49650	-627.32098	776.48248	52.41146	-632.41504	-701.33594	-22.71686	505.32617	740.10535	-24.88258	514.54388	-6.79085	1368.29468	-865.05798	
4340	43.390	-794.86249	50.38151	-627.59235	775.17847	51.18717	-632.78314	-702.11542	-22.31908	505.23038	737.45569	-24.39467	514.38196	-8.40977	1366.89978	-866.57574	
4341	43.400	-795.89331	49.49279	-627.87952	774.09094	50.21288	-632.89551	-704.12616	-20.45664	504.89029	736.94635	-23.59642	514.05591	-9.57448	1365.29810	-868.58118	
4342	43.410	-797.02356	48.13224	-628.31909	773.05505	49.21685	-633.35962	-705.09039	-19.70817	504.58853	736.21631	-22.68871	513.55273	-10.55284	1363.73657	-871.01190	
4343	43.420	-798.18726	46.99460	-628.60632	772.10577	47.88124	-633.67200	-706.77362	-18.29943	505.07437	734.43903	-22.14495	513.05890	-11.38583	1362.01868	-874.36841	
4344	43.430	-799.47894	46.12957	-628.68860	770.93463	46.84179	-633.86060	-707.90747	-17.16806	504.59943	734.93079	-20.06876	513.43878	-12.91297	1360.53406	-878.28027	
4345	43.440	-800.53375	44.71580	-629.30750	769.60657	45.48702	-634.30908	-709.04144	-16.76975	504.44577	733.36224	-19.44535	513.30402	-13.91300	1359.05188	-881.90088	
4346	43.450	-801.58588	43.38233	-629.92712	768.45123	44.43843	-634.76801	-710.17419	-15.79756	504.18921	732.70367	-18.43798	512.99908	-14.76762	1357.43457	-885.80951	
4347	43.460	-802.57776	42.28509	-629.96277	767.46454	43.13560	-635.06445	-711.08093	-14.79639	503.93317	731.07172	-17.72260	512.77728	-16.00590	1355.94470	-889.26886	
4348	43.470	-803.88605	41.16990	-630.27362	766.23474	41.87979	-635.52222	-712.47168	-13.88882	503.78857	730.14307	-16.79654	512.51208	-16.93291	1354.14990	-892.41455	
4349	43.480	-805.08521	39.83108	-630.72900	765.08569	40.61883	-635.75275	-713.40906	-13.06952	503.43536	729.00537	-15.91158	512.23462	-17.82211	1352.39844	-895.09509	
4350	43.490	-806.22217	38.60221	-631.02350	764.04700	39.37186	-636.14795	-714.69397	-11.72198	503.07840	727.97186	-14.85758	512.04956	-19.39688	1350.46509	-897.74078	
4351	43.500	-807.15741	37.15111	-631.57874	762.87262	37.96825	-636.67578	-715.99310	-11.10374	502.92249	726.96759	-13.93047	511.92844	-20.55327	1348.73438	-900.18079	
4352	43.510	-808.56287	35.87821	-631.70477	761.71594	36.80573	-636.94647	-717.23602	-10.22880	502.79367	726.36438	-12.51491	512.43567	-21.42739	1346.72583	-902.15503	
4353	43.520	-809.51068	34.61993	-632.27405	760.48224	35.44534	-637.15015	-717.74799	-10.15374	501.86475	724.78607	-11.83297	511.27606	-22.58740	1344.81921	-904.24194	
4354	43.530	-810.59460	33.32208	-632.60468	759.42535	34.18058	-637.74475	-718.64856	-9.10858	501.80386	723.48999	-10.79364	511.48175	-24.12286	1342.84314	-906.45703	
4355	43.540	-811.83301	31.69022	-632.70520	758.50836	33.05467	-637.77582	-719.10010	-9.06656	501.59128	722.51898	-9.78912	511.26752	-25.45477	1341.18616	-909.01294	
4356	43.550	-812.91174	30.64063	-632.98712	757.30316	31.64668	-638.24573	-720.46332	-7.85944	501.22025	721.18231	-8.81500	511.12823	-26.31550	1339.38245	-911.78302	
4357	43.560	-814.16663	29.36311	-633.78809	756.07043	30.32132	-638.79785	-721.58588	-6.95089	500.81512	720.28113	-7.69882	510.75613	-27.72674	1337.27100	-915.43604	
4358	43.570	-815.14294	27.64214	-633.95782	755.09045	28.85790	-638.99664	-723.06580	-5.63018	500.59579	718.86517	-6.84423	510.39264	-28.61526	1335.49719	-918.89807	
4359	43.580	-816.20190	26.35544	-634.35272	753.87109	27.51714	-639.13947	-724.07013	-4.85828	500.40515	717.90515	-5.87145	510.09155	-29.61911	1333.47314	-922.91608	
4360	43.590	-817.50739	25.48314	-634.59222	752.62726	26.11850	-639.93945	-725.41772	-3.67475	499.96848	716.92151	-4.80061	509.83707	-30.78612	1331.57507	-926.64258	
4361	43.600	-818.53345	24.11595	-634.99017	751.81323	24.86687	-640.10608	-726.48981	-2.61786	499.76859	715.41345	-3.87746	509.71365	-32.03214	1329.66797	-930.39862	
4362	43.610	-819.62903	22.92655	-635.69580	750.40924	23.52039	-640.52930	-727.63196	-1.58906	499.39905	714.72046	-2.70787	509.01849	-33.55125	1327.61047	-933.88763	
4363	43.620	-820.69769	21.14617	-635.91553	749.22766	21.91262	-640.93408	-728.75525	-0.75010	499.12265	713.09137	-1.75078	508.77261	-34.40714	1325.20044	-936.70636	
4364	43.630	-821.90588	19.20314	-636.27173	748.32220	19.69163	-641.27777	-729.94757	0.37614	498.76511	712.41949	-0.70519	508.44800	-35.51975	1323.21667	-939.78784	
4365	43.640	-823.22369	17.64558	-636.64587	747.14935	18.74171	-641.73792	-731.02539	1.35184	498.58997	711.16235	0.44041	508.19412	-36.75480	1321.06934	-942.44946	
4366	43.650	-824.27429	16.49862	-637.01770	746.23309	17.42731	-641.90948	-732.22516	2.67241	498.07294	710.05249	1.40676	507.42554	-37.55269	1318.89233	-945.03906	
4367	43.660	-824.95361	15.24509	-637.39771	744.94818	16.02638	-642.27521	-733.06848	3.48324	497.76813	708.99182	2.21973	507.35156	-38.84395	1316.88562	-948.12238	
4368	43.670	-825.58911	13.21615	-637.78589	744.08801	14.49411	-642.62079	-734.37561	4.72839	497.50888	707.44006	3.28141	507.20999	-40.15791	1315.10571	-951.11584	
4369	43.680	-826.90021	11.81625	-637.98267	742.97791	13.46326	-642.98090	-735.26996	5.53953	497.25214	706.57922	4.19158	506.65918	-41.16805	1312.95496	-954.12103	
4370	43.690	-828.23053	10.40084	-638.18536	741.94135	11.78676	-643.29785	-736.29510	6.47957	496.93961	704.59277	4.44500	505.91971	-42.20786	1311.11804	-957.13062	
4371	43.700	-829.18188	9.07812	-638.85724	740.85040	10.61141	-643.53552	-737.43799	7.16757	496.68430	706.25635	7.15173	507.34161	-42.68711	1308.93054	-960.00726	
4372	43.710	-830.03809	8.33047	-639.12195	739.83289	9.19486	-643.94775	-738.48352	8.21016	496.33313	704.61572	7.75120	506.61746	-43.95312	1307.01917	-963.12860	
4373	43.720	-831.12714	7.06384	-639.23547	738.78076	7.84865	-644.13019	-739.48541	9.16573	496.02618	703.34851	8.54854	506.12042	-45.23666	1304.99060	-965.88904	
